<svg id="Layer_1" data-name="Layer 1" xmlns="http://www.w3.org/2000/svg" viewBox="0 0 400 400"><defs><style>.cls-1{fill:#080603;}.cls-2{fill:#fcfcfc;}.cls-3{fill:#e3a623;}</style></defs><path class="cls-1" d="M400,400.52H0V.52H400ZM46.58,146V261.92H63.93V177.14l1-.06,16.92,84.86h9.77l16.76-83.86,1.74.21v83.52h17V146.08H101.13q-6.82,32.58-13.64,65.17l-1.32.14Q79.26,178.66,72.37,146Zm251.13-.09V262.14c10.68,0,21.06.07,31.44,0,19.14-.16,28.46-11.75,29.24-28.54.92-19.51.68-39.1.1-58.63-.52-17.4-11.14-28.2-27.68-28.93C320,145.53,309.09,145.92,297.71,145.92ZM220.27,262.17c10.71,0,20.71.08,30.7-.05a38.51,38.51,0,0,0,9.22-1c13-3.35,20.6-13.29,21-28.77.45-18.88.54-37.79,0-56.65-.52-17.11-9.31-27.63-25.09-29.26-11.78-1.22-23.78-.24-35.77-.24ZM142.72,146c0,30.79-.26,61,.12,91.11.17,12.72,7.46,21.57,19,25.17a37.6,37.6,0,0,0,22.87-.05c12.5-3.94,19.12-13.64,19.18-28.56.11-28.19,0-56.39,0-84.58a17,17,0,0,0-.42-2.8h-19.3A15.84,15.84,0,0,0,184,148q0,41.63-.05,83.26a32.54,32.54,0,0,1-.5,7.26c-1.3,5.62-4.85,8.14-10.58,8s-9.09-3.07-10-8.71a37.35,37.35,0,0,1-.18-6q0-40,0-79.92c0-1.91-.19-3.82-.31-5.86Zm35.1-55.5,10.53,35.24h15c-4.17-13.31-8.17-26.09-12.07-38.52,10.4-9.36,13.24-23.62,7.91-36.4-2.1-5-5.61-8.63-10.74-10.16-11-3.26-22.19-1.33-33.24-1.67v86.69h14.67V90.51ZM90.57,125.85V39.34H75.87V74H60V39.35H45.78V125.8H60.11v-38H76.35v38.1Zm21.35-.06c1-6.35,2-12.37,3-18.33h16.41c1,6.36,1.88,12.37,2.77,18.23h14.29L132.44,39.25h-18.8c-5.3,28.86-10.55,57.45-15.88,86.54ZM262.15,39.17v86.5h41.48V113.48H277.44V87.26H295.8V74.36H277.51V51.5h24.16V39.17Zm-24.56,86.71,18.14-86.6H241.1c-3.54,19.4-7.07,38.67-10.59,58l-1-.1Q224.22,68.2,219,39.28h-14.6l18.07,86.6ZM135.79,321.67h0c0-6.67.23-13.34-.06-20-.46-10.38-5.21-16.49-14-18.61-15.76-3.83-26.38,4.17-26.67,20.39-.22,12.21-.1,24.43,0,36.64a32.85,32.85,0,0,0,1,7.9A16.36,16.36,0,0,0,105,359.05c14.92,7.4,30.22-1.52,30.78-18.06C136,334.55,135.79,328.11,135.79,321.67ZM288.68,331l8.65,1.16c-.37,4.32-.55,8.26-1.06,12.15s-3.06,5.75-7,5.52-5.55-2.67-5.58-6.17q-.16-21.63,0-43.26c0-3.63,1.45-6.49,5.85-6.54,4.18-.05,5.89,2.41,6.56,6.08.5,2.75,1,5.5,1.48,7.92h11.71c0-2.95.21-5.4,0-7.81-1.13-10.78-8.93-17.87-19.55-17.91-10.18,0-18.6,6.39-18.92,15.83-.53,16-.47,32,0,47.92.25,8.5,6.43,14,14.94,15.22,6.17.9,11-1.58,15.6-6.24,1.58,4.32,3.61,7,8.21,4.78V321.81H288.68Zm51.64-205.17c0-9.14-.35-18,.13-26.76a67.23,67.23,0,0,1,2.9-16.79c4-12.62,8.77-25,13.18-37.53.61-1.73,1-3.55,1.48-5.26H343.38l-9.59,30.82-1.27-.33c-3.33-10.25-6.65-20.5-9.95-30.67H307.89c.46,1.67.74,2.93,1.16,4.14,4.62,13.14,9.45,26.21,13.78,39.44A52.8,52.8,0,0,1,325.29,97c.37,9.47.11,19,.11,28.77ZM84.29,308.4c-.51-4.32-.59-8.07-1.45-11.64-2.36-9.83-10.11-15.34-20-14.63-11,.79-18.37,7.33-18.68,17.85q-.64,21.93,0,43.91c.31,9.51,6.52,15.52,15.76,16.84,10.82,1.55,19-2.14,22.16-10.33a30.76,30.76,0,0,0,1.26-17.47H70.87c-.08,1.78-.18,3.28-.21,4.79s0,3.1,0,4.65c-.27,5.26-2.16,7.41-6.45,7.43s-6.75-2.09-6.8-7.12q-.24-21,0-41.92c.05-4.89,2.09-6.86,6.17-6.94,3.83-.08,6.39,2.14,6.95,6.52a67.22,67.22,0,0,1,.06,8.06ZM335,348.68v-23h16.21V314.57H335V294.69h21.41V283.64h-34.7V360H358V348.68Zm-75.21-65H225.63V360h35.68V348.51H238.65v-22.6h16V314.68H238.74V294.84h21.07Zm-80.3,64.66h-21V283.56H146.11v76.21h33.4Zm6,11.54h32.84V348.5H198.25v-65H185.54Z" transform="translate(0 -0.52)"/><path class="cls-2" d="M46.58,146H72.37q6.87,32.61,13.8,65.38l1.32-.14q6.81-32.58,13.64-65.17h26.06V261.81h-17V178.29l-1.74-.21L91.66,261.94H81.89L65,177.08l-1,.06v84.78H46.58Z" transform="translate(0 -0.52)"/><path class="cls-2" d="M297.71,145.92c11.38,0,22.26-.39,33.1.1,16.54.73,27.16,11.53,27.68,28.93.58,19.53.82,39.12-.1,58.63-.78,16.79-10.1,28.38-29.24,28.54-10.38.09-20.76,0-31.44,0Zm19.82,99.93c3.3,0,6.14.1,9,0,7.45-.32,11.89-4,12-11.38.32-20.16.23-40.33,0-60.5,0-4.59-1.86-9.14-6.74-10.42-4.51-1.19-9.35-1.1-14.28-1.59Z" transform="translate(0 -0.52)"/><path class="cls-2" d="M220.27,262.17v-116c12,0,24-1,35.77.24,15.78,1.63,24.57,12.15,25.09,29.26.58,18.86.49,37.77,0,56.65-.38,15.48-8,25.42-21,28.77a38.51,38.51,0,0,1-9.22,1C241,262.25,231,262.17,220.27,262.17Zm20.12-99.71V245.7c1.22.07,2.08.14,2.94.15,14.82.19,18-2.92,18-17.63q0-23.61,0-47.2C261.33,164.71,257.8,161.48,240.39,162.46Z" transform="translate(0 -0.52)"/><path class="cls-2" d="M142.72,146h19.62c.12,2,.31,4,.31,5.86q0,40,0,79.92a37.35,37.35,0,0,0,.18,6c.93,5.64,4.37,8.54,10,8.71s9.28-2.34,10.58-8a32.54,32.54,0,0,0,.5-7.26Q184,189.63,184,148a15.84,15.84,0,0,1,.23-1.71h19.3a17,17,0,0,1,.42,2.8c0,28.19.1,56.39,0,84.58-.06,14.92-6.68,24.62-19.18,28.56a37.6,37.6,0,0,1-22.87.05c-11.59-3.6-18.88-12.45-19-25.17C142.46,207,142.72,176.8,142.72,146Z" transform="translate(0 -0.52)"/><path class="cls-3" d="M177.82,90.51h-8v35.18H155.17V39c11.05.34,22.24-1.59,33.24,1.67,5.13,1.53,8.64,5.12,10.74,10.16,5.33,12.78,2.49,27-7.91,36.4,3.9,12.43,7.9,25.21,12.07,38.52h-15Zm-7.74-39V77.64c5.56.18,11.51,2,14.62-3.85a19.21,19.21,0,0,0-.07-18.58C181.45,49.45,175.57,51.19,170.08,51.49Z" transform="translate(0 -0.52)"/><path class="cls-3" d="M90.57,125.85H76.35V87.75H60.11V125.8H45.78V39.35H60V74H75.87V39.34h14.7Z" transform="translate(0 -0.52)"/><path class="cls-3" d="M111.92,125.79H97.76c5.33-29.09,10.58-57.68,15.88-86.54h18.8l15.95,86.44H134.1c-.89-5.86-1.8-11.87-2.77-18.23H114.92C113.94,113.42,113,119.44,111.92,125.79Zm11.84-66-1.45.06-5.26,33.61h12.1C127.31,82,125.53,70.87,123.76,59.78Z" transform="translate(0 -0.52)"/><path class="cls-3" d="M262.15,39.17h39.52V51.5H277.51V74.36H295.8v12.9H277.44v26.22h26.19v12.19H262.15Z" transform="translate(0 -0.52)"/><path class="cls-3" d="M237.59,125.88H222.43l-18.07-86.6H219q5.25,28.92,10.52,57.85l1,.1C234,78,237.56,58.68,241.1,39.28h14.63Z" transform="translate(0 -0.52)"/><path class="cls-3" d="M135.79,321.67c0,6.44.19,12.88,0,19.32-.56,16.54-15.86,25.46-30.78,18.06A16.36,16.36,0,0,1,96.12,348a32.85,32.85,0,0,1-1-7.9c-.1-12.21-.22-24.43,0-36.64.29-16.22,10.91-24.22,26.67-20.39,8.74,2.12,13.49,8.23,14,18.61.29,6.65.06,13.32.06,20Zm-13.21.18h0c0-6.89.18-13.78,0-20.66-.18-5.22-2.21-7.21-6.63-7.37-4.9-.19-7.44,1.72-7.56,7.14q-.43,20.66,0,41.33c.1,5.51,3.22,8,8,7.5,4.08-.41,6.08-2.73,6.22-7.94C122.71,335.19,122.58,328.52,122.58,321.85Z" transform="translate(0 -0.52)"/><path class="cls-3" d="M288.68,331v-9.14h20.83V359.6c-4.6,2.25-6.63-.46-8.21-4.78-4.56,4.66-9.43,7.14-15.6,6.24-8.51-1.25-14.69-6.72-14.94-15.22-.46-16-.52-32,0-47.92.32-9.44,8.74-15.86,18.92-15.83,10.62,0,18.42,7.13,19.55,17.91.25,2.41,0,4.86,0,7.81H297.57c-.45-2.42-1-5.17-1.48-7.92-.67-3.67-2.38-6.13-6.56-6.08-4.4.05-5.82,2.91-5.85,6.54q-.17,21.63,0,43.26c0,3.5,1.75,5.95,5.58,6.17s6.46-1.57,7-5.52.69-7.83,1.06-12.15Z" transform="translate(0 -0.52)"/><path class="cls-3" d="M340.32,125.78H325.4c0-9.81.26-19.3-.11-28.77a52.8,52.8,0,0,0-2.46-14.17c-4.33-13.23-9.16-26.3-13.78-39.44-.42-1.21-.7-2.47-1.16-4.14h14.68c3.3,10.17,6.62,20.42,9.95,30.67l1.27.33,9.59-30.82H358c-.47,1.71-.87,3.53-1.48,5.26-4.41,12.51-9.13,24.91-13.18,37.53A67.23,67.23,0,0,0,340.45,99C340,107.81,340.32,116.64,340.32,125.78Z" transform="translate(0 -0.52)"/><path class="cls-3" d="M84.29,308.4H70.55a67.22,67.22,0,0,0-.06-8.06c-.56-4.38-3.12-6.6-6.95-6.52-4.08.08-6.12,2.05-6.17,6.94q-.21,21,0,41.92c0,5,2.38,7.14,6.8,7.12s6.18-2.17,6.45-7.43c.08-1.55,0-3.1,0-4.65s.13-3,.21-4.79H83.36A30.76,30.76,0,0,1,82.1,350.4c-3.21,8.19-11.34,11.88-22.16,10.33-9.24-1.32-15.45-7.33-15.76-16.84q-.72-21.94,0-43.91c.31-10.52,7.67-17.06,18.68-17.85,9.91-.71,17.66,4.8,20,14.63C83.7,300.33,83.78,304.08,84.29,308.4Z" transform="translate(0 -0.52)"/><path class="cls-3" d="M335,348.68h23V360H321.71V283.64h34.7v11.05H335v19.88h16.23v11.09H335Z" transform="translate(0 -0.52)"/><path class="cls-3" d="M259.81,283.67v11.17H238.74v19.84h15.92v11.23h-16v22.6h22.66V360H225.63V283.67Z" transform="translate(0 -0.52)"/><path class="cls-3" d="M179.51,348.33v11.44h-33.4V283.56H158.5v64.77Z" transform="translate(0 -0.52)"/><path class="cls-3" d="M185.54,359.87V283.5h12.71v65h20.13v11.37Z" transform="translate(0 -0.52)"/><path class="cls-1" d="M317.53,245.85V161.94c4.93.49,9.77.4,14.28,1.59,4.88,1.28,6.7,5.83,6.74,10.42.19,20.17.28,40.34,0,60.5-.12,7.38-4.56,11.06-12,11.38C323.67,246,320.83,245.85,317.53,245.85Z" transform="translate(0 -0.52)"/><path class="cls-1" d="M240.39,162.46c17.41-1,20.94,2.25,20.94,18.56q0,23.6,0,47.2c0,14.71-3.18,17.82-18,17.63-.86,0-1.72-.08-2.94-.15Z" transform="translate(0 -0.52)"/><path class="cls-1" d="M170.08,51.49c5.49-.3,11.37-2,14.55,3.72a19.21,19.21,0,0,1,.07,18.58c-3.11,5.87-9.06,4-14.62,3.85Z" transform="translate(0 -0.52)"/><path class="cls-1" d="M123.76,59.78c1.77,11.09,3.55,22.17,5.39,33.67h-12.1l5.26-33.61Z" transform="translate(0 -0.52)"/><path class="cls-1" d="M122.58,321.85c0,6.67.13,13.34,0,20-.14,5.21-2.14,7.53-6.22,7.94-4.8.48-7.92-2-8-7.5q-.39-20.66,0-41.33c.12-5.42,2.66-7.33,7.56-7.14,4.42.16,6.45,2.15,6.63,7.37.23,6.88,0,13.77,0,20.66Z" transform="translate(0 -0.52)"/></svg>